<mxfile host="www.draw.io" modified="2019-12-10T07:26:27.247Z" agent="Mozilla/5.0 (Windows NT 10.0; WOW64) AppleWebKit/537.36 (KHTML, like Gecko) Chrome/78.0.3904.108 Safari/537.36" etag="96AtdOZX-87CcwisF-w-" version="12.3.9" type="github" pages="1">
  <diagram id="0z5Tfwsv2BzYKlHuaYr5" name="第 1 页">
    <mxGraphModel dx="1038" dy="588" grid="1" gridSize="10" guides="1" tooltips="1" connect="1" arrows="1" fold="1" page="1" pageScale="1" pageWidth="827" pageHeight="1169" math="0" shadow="0">
      <root>
        <mxCell id="0"/>
        <mxCell id="1" parent="0"/>
        <mxCell id="SxcqQbeFE_OewuqSvusf-4" style="edgeStyle=none;rounded=0;orthogonalLoop=1;jettySize=auto;html=1;entryX=0.5;entryY=0;entryDx=0;entryDy=0;exitX=0;exitY=0.5;exitDx=0;exitDy=0;startArrow=classic;startFill=1;" edge="1" parent="1" source="SxcqQbeFE_OewuqSvusf-1" target="SxcqQbeFE_OewuqSvusf-2">
          <mxGeometry relative="1" as="geometry"/>
        </mxCell>
        <mxCell id="SxcqQbeFE_OewuqSvusf-5" style="edgeStyle=none;rounded=0;orthogonalLoop=1;jettySize=auto;html=1;entryX=0.5;entryY=0;entryDx=0;entryDy=0;exitX=1;exitY=0.5;exitDx=0;exitDy=0;startArrow=classic;startFill=1;" edge="1" parent="1" source="SxcqQbeFE_OewuqSvusf-1" target="SxcqQbeFE_OewuqSvusf-3">
          <mxGeometry relative="1" as="geometry"/>
        </mxCell>
        <mxCell id="SxcqQbeFE_OewuqSvusf-1" value="Eureka Server" style="rounded=0;whiteSpace=wrap;html=1;" vertex="1" parent="1">
          <mxGeometry x="320" y="40" width="120" height="60" as="geometry"/>
        </mxCell>
        <mxCell id="SxcqQbeFE_OewuqSvusf-2" value="Eureka Client&lt;br&gt;订单服务" style="rounded=1;whiteSpace=wrap;html=1;" vertex="1" parent="1">
          <mxGeometry x="170" y="170" width="120" height="60" as="geometry"/>
        </mxCell>
        <mxCell id="SxcqQbeFE_OewuqSvusf-3" value="Eureka Client&lt;br&gt;商品服务" style="rounded=1;whiteSpace=wrap;html=1;" vertex="1" parent="1">
          <mxGeometry x="480" y="170" width="120" height="60" as="geometry"/>
        </mxCell>
        <mxCell id="SxcqQbeFE_OewuqSvusf-6" value="" style="shape=flexArrow;endArrow=classic;startArrow=classic;html=1;exitX=1;exitY=0.5;exitDx=0;exitDy=0;entryX=0;entryY=0.5;entryDx=0;entryDy=0;" edge="1" parent="1" source="SxcqQbeFE_OewuqSvusf-2" target="SxcqQbeFE_OewuqSvusf-3">
          <mxGeometry width="50" height="50" relative="1" as="geometry">
            <mxPoint x="330" y="370" as="sourcePoint"/>
            <mxPoint x="380" y="320" as="targetPoint"/>
          </mxGeometry>
        </mxCell>
      </root>
    </mxGraphModel>
  </diagram>
</mxfile>
